HIERARCHY
ROOT Hips
{
	OFFSET 0.000000 0.000000 0.000000 
	CHANNELS 6 Xposition Yposition Zposition Zrotation Yrotation Xrotation
	JOINT LeftUpLeg
	{
		OFFSET 1.363060 -1.794630 0.839290 
		CHANNELS 3 Zrotation Yrotation Xrotation
		JOINT LeftLeg
		{
			OFFSET 2.448110 -6.726130 0.000000 
			CHANNELS 3 Zrotation Yrotation Xrotation
			JOINT LeftFoot
			{
				OFFSET 2.562200 -7.039590 0.000000 
				CHANNELS 3 Zrotation Yrotation Xrotation
				JOINT LeftToeBase
				{
					OFFSET 0.157640 -0.433110 2.322550 
					CHANNELS 3 Zrotation Yrotation Xrotation
					End Site
					{
						OFFSET 0.000000 0.000000 0.000000 
					}
				}
			}
		}
	}
	JOINT RightUpLeg
	{
		OFFSET -1.305520 -1.794630 0.839290 
		CHANNELS 3 Zrotation Yrotation Xrotation
		JOINT RightLeg
		{
			OFFSET -2.542530 -6.985550 0.000000 
			CHANNELS 3 Zrotation Yrotation Xrotation
			JOINT RightFoot
			{
				OFFSET -2.568260 -7.056230 0.000000 
				CHANNELS 3 Zrotation Yrotation Xrotation
				JOINT RightToeBase
				{
					OFFSET -0.164730 -0.452590 2.363150 
					CHANNELS 3 Zrotation Yrotation Xrotation
					End Site
					{
						OFFSET 0.000000 0.000000 0.000000 
					}
				}
			}
		}
	}
	JOINT Spine
	{
		OFFSET 0.028270 2.035590 -0.193380 
		CHANNELS 3 Zrotation Yrotation Xrotation
		JOINT Spine1
		{
			OFFSET 0.056720 2.048850 -0.042750 
			CHANNELS 3 Zrotation Yrotation Xrotation
			JOINT Neck1
			{
				OFFSET -0.054170 1.746240 0.172020 
				CHANNELS 3 Zrotation Yrotation Xrotation
				JOINT Head
				{
					OFFSET 0.104070 1.761360 -0.123970 
					CHANNELS 3 Zrotation Yrotation Xrotation
					End Site
					{
						OFFSET 0.000000 0.000000 0.000000 
					}
				}
			}
			JOINT LeftArm
			{
				OFFSET 3.362410 1.200890 -0.311210 
				CHANNELS 3 Zrotation Yrotation Xrotation
				JOINT LeftForeArm
				{
					OFFSET 4.983000 -0.000000 -0.000000 
					CHANNELS 3 Zrotation Yrotation Xrotation
					JOINT LeftHand
					{
						OFFSET 3.483560 -0.000000 -0.000000 
						CHANNELS 3 Zrotation Yrotation Xrotation
						JOINT LeftHandIndex1
						{
							OFFSET 0.715260 -0.000000 -0.000000 
							CHANNELS 3 Zrotation Yrotation Xrotation
							End Site
							{
								OFFSET 0.000000 0.000000 0.000000 
							}
						}
					}
				}
			}
			JOINT RightArm
			{
				OFFSET -3.136600 1.374050 -0.404650 
				CHANNELS 3 Zrotation Yrotation Xrotation
				JOINT RightForeArm
				{
					OFFSET -5.241900 -0.000000 -0.000000 
					CHANNELS 3 Zrotation Yrotation Xrotation
					JOINT RightHand
					{
						OFFSET -3.444170 -0.000000 -0.000000 
						CHANNELS 3 Zrotation Yrotation Xrotation
						JOINT RightHandIndex1
						{
							OFFSET -0.622530 -0.000000 -0.000000 
							CHANNELS 3 Zrotation Yrotation Xrotation
							End Site
							{
								OFFSET 0.000000 0.000000 0.000000 
							}
						}
					}
				}
			}
		}
	}
}
MOTION
Frames: 12
Frame Time: 0.041667
-3.028900 17.572381 10.889147 -53.408989 84.852306 -50.771141 -9.231418 -3.570184 -10.673511 2.348132 11.886870 32.434452 1.293227 -8.200871 -13.115524 0.373100 3.923100 10.860500 20.186439 -4.564942 -14.195057 -3.268366 -12.757389 35.435681 -1.535683 5.453910 -13.942579 -0.315600 -3.611100 9.984900 2.269947 1.326171 -2.417349 4.303697 0.740369 0.733285 3.231375 -0.589974 24.169808 2.993000 -0.933300 15.213400 -90.609747 5.670413 15.961208 15.583846 -26.709189 -3.762278 0.122896 0.606284 -1.940247 -7.125000 0.000000 0.000000 80.406634 5.221473 21.884652 -17.181977 26.324929 -4.448850 0.376312 -0.149630 -14.611672 7.125000 0.000000 0.000000 
-3.026680 17.573894 10.888542 -52.501677 84.915444 -49.808293 -9.325541 -3.405246 -10.769431 2.334352 11.864071 32.360473 1.286306 -8.256088 -13.003015 0.334300 3.715900 10.278600 20.063462 -4.532150 -14.254941 -3.287043 -12.775581 35.507833 -1.565406 5.609261 -14.036690 -0.301100 -3.528100 9.752800 2.253902 1.288768 -2.429409 4.314175 0.720133 0.737254 3.259441 -0.560959 24.194742 3.027800 -0.932000 15.251900 -90.470527 5.668860 16.466640 15.841918 -27.042345 -3.869106 0.120064 0.613110 -2.251573 -7.125000 0.000000 0.000000 80.407671 5.197276 21.928714 -17.106502 26.230747 -4.413278 0.375750 -0.149619 -14.899800 7.125000 0.000000 0.000000 
-3.028093 17.575609 10.889652 -51.426495 85.111243 -48.680063 -9.527325 -3.423710 -10.827737 2.318869 11.841624 32.284508 1.281158 -8.389021 -12.871886 0.328300 3.682300 10.184700 19.828904 -4.473717 -14.321769 -3.307898 -12.792215 35.585161 -1.586658 5.804332 -13.969081 -0.393100 -4.025700 11.149100 2.216169 1.235933 -2.455998 4.322869 0.691231 0.674229 3.350209 -0.539778 24.184307 3.095000 -0.924600 15.245800 -90.346878 5.622336 16.863306 16.033511 -27.288852 -3.951518 0.126400 0.618069 -2.483176 -7.125000 0.000000 0.000000 80.450017 5.117855 22.024238 -17.041975 26.147274 -4.382301 0.383511 -0.148763 -15.132920 7.125000 0.000000 0.000000 
-3.027487 17.574298 10.887836 -50.308593 85.226474 -47.580494 -9.690660 -3.508280 -10.749743 2.304371 11.828862 32.230051 1.279339 -8.383345 -12.879673 0.333800 3.713200 10.271100 19.654237 -4.493341 -14.328718 -3.322414 -12.805741 35.640781 -1.599745 5.908098 -13.953280 -0.454500 -4.325100 11.993200 2.204962 1.197196 -2.475203 4.371823 0.669596 0.595656 3.336853 -0.489447 24.214450 3.084100 -0.901000 15.265200 -90.180729 5.605349 17.435686 16.213909 -27.518038 -4.025876 0.127817 0.616408 -2.808826 -7.125000 0.000000 0.000000 80.442354 4.975351 22.145773 -16.997872 26.085322 -4.359541 0.395229 -0.143104 -15.263650 7.125000 0.000000 0.000000 
-3.020425 17.572785 10.885213 -50.155702 85.118710 -47.449282 -9.643246 -3.489407 -10.640458 2.292286 11.817494 32.183291 1.284944 -8.246956 -13.031502 0.329400 3.688800 10.202800 19.709332 -4.629963 -14.351911 -3.332873 -12.818828 35.682030 -1.614224 6.027593 -13.941156 -0.440300 -4.257500 11.802200 2.238038 1.175117 -2.487970 4.446464 0.658526 0.555308 3.269380 -0.402040 24.244637 3.042800 -0.866000 15.267500 -90.173923 5.635097 17.720569 16.405829 -27.760589 -4.103473 0.117890 0.615280 -2.870524 -7.125000 0.000000 0.000000 80.375387 4.848008 22.161934 -16.882073 25.939095 -4.305400 0.396427 -0.142526 -15.067507 7.125000 0.000000 0.000000 
-3.011748 17.574601 10.884002 -49.787753 85.067314 -46.991781 -9.634134 -3.458143 -10.688079 2.285820 11.812279 32.166184 1.289640 -8.091029 -13.186516 0.286900 3.444500 9.518800 19.716890 -4.685867 -14.452228 -3.334856 -12.816372 35.682395 -1.620580 6.128551 -13.859867 -0.426200 -4.189900 11.611600 2.253604 1.150021 -2.505764 4.507160 0.646230 0.576002 3.248351 -0.329664 24.220457 3.034600 -0.838300 15.222800 -90.219773 5.616402 17.767969 16.586644 -27.995204 -4.182921 0.116355 0.619778 -2.939372 -7.125000 0.000000 0.000000 80.354882 4.787320 22.049621 -16.730703 25.749846 -4.236081 0.397137 -0.142782 -14.885188 7.125000 0.000000 0.000000 
-3.009428 17.576921 10.885112 -49.004596 85.135166 -46.116078 -9.716775 -3.568386 -10.761184 2.285712 11.814225 32.176236 1.287870 -8.061855 -13.195943 0.293100 3.481600 9.622600 19.640793 -4.540318 -14.494639 -3.324171 -12.803788 35.648529 -1.595120 5.793749 -14.067448 -0.313100 -3.597300 9.946300 2.235061 1.155279 -2.527430 4.531800 0.647608 0.562829 3.291292 -0.343551 24.204740 3.066700 -0.846700 15.218300 -90.116831 5.549046 18.172307 16.819271 -28.288490 -4.284375 0.115917 0.625196 -3.372023 -7.125000 0.000000 0.000000 80.445284 4.735214 21.765845 -16.590784 25.568450 -4.172391 0.405053 -0.144227 -14.746298 7.125000 0.000000 0.000000 
-3.009629 17.576013 10.886222 -49.769696 85.084797 -46.857622 -9.629612 -3.769070 -10.725069 2.289620 11.821364 32.206242 1.281980 -7.946142 -13.210729 0.336300 3.726800 10.309400 19.756914 -4.376757 -14.456169 -3.306167 -12.789426 35.592468 -1.565863 5.412111 -14.325523 -0.232300 -3.101800 8.562400 2.249924 1.132246 -2.545572 4.548956 0.636592 0.506026 3.317514 -0.322122 24.203006 3.088500 -0.839700 15.220200 -90.067707 5.491156 18.521062 17.058167 -28.577808 -4.382534 0.103293 0.624358 -3.649183 -7.125000 0.000000 0.000000 80.479363 4.620952 21.587291 -16.482811 25.431663 -4.124138 0.402715 -0.148818 -14.532951 7.125000 0.000000 0.000000 
-3.004585 17.575912 10.885616 -51.530279 85.006870 -48.551369 -9.471820 -3.858668 -10.760089 2.303587 11.835915 32.267836 1.285503 -7.912061 -13.254942 0.323700 3.656700 10.112800 19.904823 -4.385010 -14.472293 -3.291424 -12.768159 35.516150 -1.577649 5.594999 -14.182102 -0.304600 -3.548300 9.809100 2.270873 1.077091 -2.559510 4.508499 0.612149 0.514491 3.249243 -0.299159 24.200040 3.017200 -0.812300 15.195300 -90.064806 5.382342 18.646548 17.197426 -28.746178 -4.439216 0.094119 0.620423 -3.534966 -7.125000 0.000000 0.000000 80.580007 4.517347 21.189854 -16.363839 25.285235 -4.072677 0.393854 -0.156889 -14.205902 7.125000 0.000000 0.000000 
-2.996614 17.576618 10.881782 -52.933599 84.888621 -49.891590 -9.301729 -3.786140 -10.848413 2.326118 11.855350 32.347223 1.298135 -8.062229 -13.254962 0.296200 3.499300 9.672200 20.048195 -4.460979 -14.488111 -3.278333 -12.747160 35.439931 -1.597922 5.897305 -13.956750 -0.388900 -4.004400 11.089100 2.267164 1.050576 -2.559515 4.362759 0.602940 0.570872 3.187722 -0.290498 24.200954 2.933200 -0.777900 15.180700 -89.899792 5.308089 18.956466 17.360699 -28.949560 -4.513175 0.097580 0.622923 -3.579919 -7.125000 0.000000 0.000000 80.807079 4.465107 20.798251 -16.237016 25.123924 -4.016753 0.393790 -0.160722 -13.927282 7.125000 0.000000 0.000000 
-2.991973 17.574601 10.876536 -54.180301 84.648605 -51.150928 -9.051264 -3.709624 -10.853239 2.341167 11.868818 32.401629 1.306959 -8.053386 -13.324104 0.276600 3.382800 9.346400 20.313949 -4.579636 -14.495351 -3.270368 -12.739216 35.400143 -1.608547 6.032957 -13.885102 -0.408800 -4.104400 11.370500 2.282721 1.036679 -2.551246 4.242053 0.599809 0.582910 3.242635 -0.240360 24.178129 2.967500 -0.751700 15.167500 -89.717138 5.240190 19.426703 17.518013 -29.140750 -4.584355 0.105844 0.624814 -4.169187 -7.125000 0.000000 0.000000 80.915955 4.362050 20.742648 -16.183090 25.058238 -3.992838 0.393913 -0.159204 -13.798865 7.125000 0.000000 0.000000 
-2.990157 17.573491 10.872500 -54.366910 84.550951 -51.362536 -8.979742 -3.716308 -10.827296 2.346666 11.879668 32.436475 1.313579 -7.937780 -13.472789 0.244300 3.180400 8.781400 20.414714 -4.762203 -14.536893 -3.266182 -12.734664 35.382809 -1.595410 5.995124 -13.795764 -0.400800 -4.064500 11.258100 2.288398 1.023278 -2.560458 4.199211 0.594586 0.518875 3.245582 -0.197388 24.175972 2.975900 -0.736500 15.167000 -89.569880 5.162558 19.779669 17.644157 -29.279944 -4.631859 0.096923 0.615250 -4.617387 -7.125000 0.000000 0.000000 80.981435 4.182427 20.595136 -16.145202 25.012605 -3.976846 0.391703 -0.161037 -13.638476 7.125000 0.000000 0.000000 
